<svg xmlns="http://www.w3.org/2000/svg" viewBox="0 0 21 18" fill="#4caced"><path d="M3.153 6.5H0v5h3.153l4.108 3.38s.863.757.863.05V3c0-.558-.76.044-.76.044L3.153 6.5m10.897 9.84A9.554 9.554 0 0 0 17.503 9a9.557 9.557 0 0 0-3.453-7.34.692.692 0 0 0-.971.085.679.679 0 0 0 .084.962A8.188 8.188 0 0 1 16.126 9a8.192 8.192 0 0 1-2.961 6.29.677.677 0 0 0-.086.963.69.69 0 0 0 .971.088m.7-7.34a6.82 6.82 0 0 0-2.463-5.243.695.695 0 0 0-.973.083.682.682 0 0 0 .086.965 5.456 5.456 0 0 1 1.975 4.194 5.462 5.462 0 0 1-1.975 4.194.677.677 0 0 0-.086.963c.248.3.682.327.973.082A6.806 6.806 0 0 0 14.74 9m-2.756 0a4.085 4.085 0 0 0-1.479-3.146.69.69 0 0 0-1.13.523c0 .195.085.4.246.525a2.72 2.72 0 0 1 0 4.195.68.68 0 0 0-.084.962.69.69 0 0 0 .969.084A4.084 4.084 0 0 0 11.984 9"/></svg>